<?xml version="1.0" standalone="no"?>
<!DOCTYPE svg PUBLIC "-//W3C//DTD SVG 20010904//EN"
 "http://www.w3.org/TR/2001/REC-SVG-20010904/DTD/svg10.dtd">
<svg version="1.0" xmlns="http://www.w3.org/2000/svg"
 width="300.000000pt" height="300.000000pt" viewBox="0 0 300.000000 300.000000"
 preserveAspectRatio="xMidYMid meet">
<metadata>
Created by potrace 1.10, written by Peter Selinger 2001-2011
</metadata>
<g transform="translate(0.000000,300.000000) scale(0.100000,-0.100000)"
fill="#000000" stroke="none">
<path d="M944 2357 c-77 -51 -103 -71 -104 -79 0 -4 29 14 63 40 35 26 72 52
83 59 10 6 16 12 13 12 -4 1 -29 -14 -55 -32z"/>
<path d="M2014 2378 c11 -7 48 -35 84 -61 35 -26 66 -46 68 -44 5 5 -114 91
-146 106 -21 10 -22 9 -6 -1z"/>
<path d="M1480 2250 c0 -20 5 -30 15 -30 10 0 15 10 15 30 0 20 -5 30 -15 30
-10 0 -15 -10 -15 -30z"/>
<path d="M1580 2175 c0 -41 3 -56 13 -52 7 2 12 22 12 52 0 30 -5 50 -12 53
-10 3 -13 -12 -13 -53z"/>
<path d="M1480 2145 c0 -41 3 -56 13 -52 7 2 12 22 12 52 0 30 -5 50 -12 53
-10 3 -13 -12 -13 -53z"/>
<path d="M674 2102 c-23 -31 -46 -68 -53 -82 -10 -21 -9 -22 1 -6 7 11 34 48
60 83 26 34 44 63 40 63 -4 0 -26 -26 -48 -58z"/>
<path d="M2318 2097 c26 -35 53 -72 60 -83 10 -16 11 -15 1 6 -16 33 -92 139
-101 140 -4 0 14 -29 40 -63z"/>
<path d="M1387 2093 c-4 -3 -7 -21 -7 -40 0 -23 5 -33 15 -33 11 0 15 11 15
40 0 38 -8 49 -23 33z"/>
<path d="M1580 2059 c0 -52 24 -48 28 4 2 28 -1 37 -12 37 -12 0 -16 -11 -16
-41z"/>
<path d="M1480 1990 c0 -64 3 -80 15 -80 12 0 15 16 15 80 0 64 -3 80 -15 80
-12 0 -15 -16 -15 -80z"/>
<path d="M1382 1948 c4 -74 28 -77 28 -4 0 44 -3 56 -16 56 -12 0 -14 -10 -12
-52z"/>
<path d="M1580 1945 c0 -42 3 -55 15 -55 12 0 15 13 15 55 0 42 -3 55 -15 55
-12 0 -15 -13 -15 -55z"/>
<path d="M1300 1856 c0 -44 3 -56 16 -56 12 0 14 10 12 52 -4 74 -28 77 -28 4z"/>
<path d="M1480 1845 c0 -33 4 -45 15 -45 11 0 15 12 15 45 0 33 -4 45 -15 45
-11 0 -15 -12 -15 -45z"/>
<path d="M1660 1840 c0 -29 4 -40 15 -40 11 0 15 11 15 40 0 29 -4 40 -15 40
-11 0 -15 -11 -15 -40z"/>
<path d="M1382 1838 c4 -46 28 -49 28 -4 0 26 -4 36 -16 36 -11 0 -14 -8 -12
-32z"/>
<path d="M1580 1834 c0 -45 24 -42 28 4 2 24 -1 32 -12 32 -12 0 -16 -10 -16
-36z"/>
<path d="M893 1758 c-12 -15 0 -130 18 -187 30 -93 83 -178 158 -251 86 -86
164 -131 273 -160 l73 -19 -92 0 c-76 -1 -93 -4 -93 -16 0 -13 37 -15 270 -15
233 0 270 2 270 15 0 12 -17 15 -92 16 l-93 0 73 19 c85 23 174 67 233 118 41
35 45 36 111 33 81 -3 139 20 189 77 67 76 107 215 77 272 -19 36 -75 62 -120
55 -34 -5 -37 -3 -40 22 l-3 28 -601 3 c-474 2 -604 -1 -611 -10z m1187 -54
c0 -57 -29 -153 -68 -229 -70 -134 -218 -251 -368 -290 -75 -19 -213 -19 -288
0 -136 35 -269 131 -346 248 -55 85 -100 231 -91 300 1 4 262 7 581 7 l580 0
0 -36z m125 -28 c26 -11 35 -22 40 -49 13 -66 -28 -168 -92 -229 -46 -45 -79
-58 -144 -58 l-49 0 34 48 c48 66 91 159 106 231 15 73 38 85 105 57z"/>
<path d="M950 1698 c1 -33 29 -103 41 -103 17 0 17 6 0 68 -8 27 -19 47 -27
47 -8 0 -14 -6 -14 -12z"/>
<path d="M1389 1621 c-30 -30 -31 -35 -27 -94 7 -117 82 -211 176 -224 40 -5
42 -5 42 21 0 39 -15 62 -90 142 -42 44 -71 84 -75 104 -10 44 1 49 18 7 8
-19 49 -68 91 -109 54 -52 78 -83 82 -107 l7 -33 13 23 c23 42 17 110 -17 178
-35 71 -84 110 -148 118 -35 5 -44 2 -72 -26z m151 -28 c49 -42 80 -102 79
-153 0 -34 -1 -34 -13 12 -16 59 -56 118 -104 152 -20 14 -30 26 -21 26 8 0
35 -17 59 -37z m-20 -48 c22 -26 4 -28 -24 -2 -14 13 -26 27 -26 31 0 10 34
-10 50 -29z m-55 -97 c76 -76 93 -119 40 -98 -30 12 -63 46 -85 90 -39 76 -26
78 45 8z"/>
<path d="M997 1564 c-10 -10 12 -44 28 -44 18 0 18 5 5 31 -11 19 -22 24 -33
13z"/>
<path d="M1035 1490 c-6 -10 54 -110 67 -110 19 0 15 23 -15 68 -33 52 -41 59
-52 42z"/>
<path d="M1132 1353 c6 -32 128 -103 128 -75 0 8 -114 92 -125 92 -4 0 -5 -8
-3 -17z"/>
<path d="M980 1130 c0 -17 6 -20 40 -18 23 1 43 5 46 10 3 5 12 4 19 -2 9 -8
14 -7 18 4 4 10 -5 15 -34 18 -21 2 -48 0 -59 -4 -13 -5 -19 -4 -15 2 3 6 1
10 -4 10 -6 0 -11 -9 -11 -20z"/>
<path d="M1933 1132 c-1 -14 7 -18 43 -19 37 -1 44 1 44 18 0 16 -7 19 -43 19
-34 0 -43 -4 -44 -18z"/>
<path d="M984 1016 c-3 -8 -4 -27 -2 -43 3 -24 8 -28 37 -31 24 -3 32 0 29 10
-3 7 -11 13 -19 13 -22 0 -22 32 1 38 11 3 20 10 20 16 0 16 -60 13 -66 -3z"/>
<path d="M1074 1006 c-10 -41 4 -66 37 -66 37 0 57 35 40 69 -17 31 -69 29
-77 -3z"/>
<path d="M1185 985 c0 -36 3 -45 18 -45 9 0 17 6 17 14 0 8 6 17 13 19 9 4 8
8 -3 16 -13 9 -13 11 3 11 9 0 17 7 17 15 0 10 -10 15 -32 15 -32 0 -33 -1
-33 -45z"/>
<path d="M1275 985 c0 -37 3 -45 17 -45 10 0 18 6 18 14 0 8 6 17 13 19 9 4 8
8 -3 16 -13 9 -13 11 3 11 9 0 17 7 17 15 0 10 -10 15 -32 15 -32 0 -33 -1
-33 -45z"/>
<path d="M1365 985 c0 -44 1 -45 33 -45 17 0 32 5 32 10 0 6 -8 10 -17 10 -12
0 -14 3 -6 8 6 4 15 20 18 35 7 25 5 27 -26 27 -34 0 -34 -1 -34 -45z"/>
<path d="M1455 985 c0 -44 1 -45 33 -45 17 0 32 5 32 10 0 6 -8 10 -17 10 -12
0 -14 3 -6 8 6 4 15 20 18 35 7 25 5 27 -26 27 -34 0 -34 -1 -34 -45z"/>
<path d="M1607 1023 c-12 -12 -7 -36 11 -49 16 -13 16 -14 0 -8 -12 4 -18 1
-18 -10 0 -11 9 -16 30 -16 34 0 49 22 31 44 -8 10 -9 16 -1 21 19 12 10 25
-18 25 -16 0 -32 -3 -35 -7z"/>
<path d="M1700 985 c0 -33 4 -45 15 -45 8 0 15 7 15 15 0 8 5 15 11 15 6 0 9
-7 5 -15 -4 -10 1 -15 14 -15 17 0 20 7 20 45 0 38 -3 45 -20 45 -13 0 -18 -5
-14 -15 4 -8 1 -15 -5 -15 -6 0 -11 7 -11 15 0 8 -7 15 -15 15 -11 0 -15 -12
-15 -45z"/>
<path d="M1814 1016 c-3 -8 -4 -27 -2 -43 3 -25 7 -28 38 -28 34 0 35 1 35 40
0 38 -2 40 -33 43 -21 2 -34 -2 -38 -12z"/>
<path d="M1925 985 c0 -36 3 -45 18 -45 9 0 17 6 17 14 0 7 9 16 21 19 15 4
20 12 17 29 -2 18 -10 24 -38 26 l-35 3 0 -46z"/>
<path d="M621 980 c15 -32 101 -151 106 -146 2 2 -18 33 -44 68 -26 36 -54 73
-61 84 -10 16 -11 15 -1 -6z"/>
<path d="M2366 972 c-8 -16 -33 -52 -56 -80 -22 -29 -37 -52 -33 -52 15 1 123
160 109 160 -3 0 -12 -13 -20 -28z"/>
<path d="M1390 883 c0 -14 2 -15 9 -4 7 11 10 10 14 -5 4 -18 5 -18 6 1 1 13
4 16 9 8 12 -18 46 -20 50 -2 2 12 -7 16 -43 17 -37 2 -45 -1 -45 -15z"/>
<path d="M1525 891 c-11 -10 -3 -19 20 -23 19 -4 25 -1 25 13 0 12 -7 17 -20
16 -12 -1 -23 -3 -25 -6z"/>
<path d="M1660 879 c0 -11 5 -17 10 -14 6 4 8 11 5 16 -4 5 -2 9 4 9 5 0 12
-8 14 -17 4 -16 5 -15 6 1 1 20 1 20 16 0 14 -19 14 -18 15 4 0 19 -5 22 -35
22 -29 0 -35 -4 -35 -21z"/>
<path d="M840 722 c1 -9 107 -85 140 -101 21 -10 22 -9 6 1 -11 7 -48 34 -83
60 -34 26 -63 44 -63 40z"/>
<path d="M2094 681 c-33 -25 -69 -52 -80 -59 -16 -11 -15 -11 6 -1 14 6 50 30
80 52 68 50 64 46 59 50 -2 2 -31 -17 -65 -42z"/>
</g>
</svg>
